:version 1.10
:name ASF
:units
  mass 1
  length 1
  angle deg
:documentation
  ASF file generated by Kaydara
:root
  axis xyz
  order  tx ty tz rx ry rz
  position 0 0 0
  orientation 0 0 0
:bonedata
  begin
    id 1
    name LeftUpLegDummy
    direction 1 -2.30186e-007 -8.31532e-007
    length 2.93387
    axis 0 0 0 xyz
  end
  begin
    id 2
    name LeftUpLeg
    direction -1.82929e-007 -1 -1.48925e-009
    length 17.3336
    axis -3.48766 0.00143442 -0.000521554 xyz
    dof rx ry rz
  end
  begin
    id 3
    name LeftLeg
    direction -1.82929e-007 -1 -5.23717e-011
    length 14.9995
    axis 3.68178 -0.00654042 -0.000282425 xyz
    dof rx ry rz
  end
  begin
    id 4
    name LeftFoot
    direction 8.31532e-007 -4.54534e-011 1
    length 6.74421
    axis 1.87234e-006 4.66016e-005 -5.96866e-006 xyz
    dof rx ry rz
  end
  begin
    id 5
    name LeftToes
    direction 0.00818058 -0.00485161 0.999955
    length 3.85048
    axis 1.06247e-005 4.65869e-005 -5.96999e-006 xyz
    dof rx ry rz
  end
  begin
    id 6
    name SpineDummy
    direction -5.8607e-008 0.943407 -0.331637
    length 5.93572
    axis 0 0 0 xyz
  end
  begin
    id 7
    name Spine
    direction -1.04988e-007 0.999988 0.00495137
    length 10.1015
    axis -0.001389 0.000121417 6.61666e-006 xyz
    dof rx ry rz
  end
  begin
    id 8
    name Spine1
    direction 0 0 0
    length 0
    axis -0.001389 0.00012144 6.56766e-006 xyz
    dof rx ry rz
  end
  begin
    id 9
    name RightShoulderDummy
    direction -0.98348 0.17941 -0.0240696
    length 3.59882
    axis -0.001389 0.00012144 6.56766e-006 xyz
  end
  begin
    id 10
    name RightShoulder
    direction -0.978693 0.204882 0.0135597
    length 2.70001
    axis 0.215806 0.000203631 -0.00679732 xyz
    dof rx ry rz
  end
  begin
    id 11
    name RightArm
    direction -1 3.85509e-006 8.31394e-007
    length 10.2459
    axis -23.2009 -0.134239 -0.964098 xyz
    dof rx ry rz
  end
  begin
    id 12
    name RightForeArm
    direction -1 3.85569e-006 8.3129e-007
    length 8.16799
    axis -9.92322 0.0658061 0.17887 xyz
    dof rx ry rz
  end
  begin
    id 13
    name RightHand
    direction -0.992843 -0.0414604 0.112003
    length 5.28593
    axis -0.00960638 0.00330669 -0.185225 xyz
    dof rx ry rz
  end
  begin
    id 14
    name LeftShoulder1Dummy
    direction 0.983523 0.179172 -0.0240748
    length 3.59866
    axis -0.001389 0.00012144 6.56766e-006 xyz
  end
  begin
    id 15
    name LeftShoulder1
    direction 0.978627 0.205195 0.0135605
    length 2.70019
    axis -0.001389 0.00012144 6.57583e-006 xyz
    dof rx ry rz
  end
  begin
    id 16
    name LeftArm
    direction 1 3.51895e-006 -8.60188e-007
    length 10.2459
    axis -23.1894 0.134785 0.967513 xyz
    dof rx ry rz
  end
  begin
    id 17
    name LeftForeArm
    direction 1 3.51921e-006 -7.32029e-007
    length 8.16799
    axis -9.91835 -0.0656957 -0.177789 xyz
    dof rx ry rz
  end
  begin
    id 18
    name LeftHand
    direction 0.992938 -0.0411636 0.11126
    length 5.32135
    axis -0.00960237 -0.00340661 0.185177 xyz
    dof rx ry rz
  end
  begin
    id 19
    name HEadDummy
    direction 1.01974e-006 0.999861 -0.016675
    length 2.99946
    axis -0.001389 0.00012144 6.56766e-006 xyz
  end
  begin
    id 20
    name HEad
    direction -0.0222689 0.980941 0.193023
    length 5.12695
    axis -0.001389 0.00012144 6.56766e-006 xyz
    dof rx ry rz
  end
  begin
    id 21
    name RightUpLegDummy
    direction -1 2.30186e-007 8.31532e-007
    length 2.93387
    axis 0 0 0 xyz
  end
  begin
    id 22
    name RightUpLeg
    direction -1.82966e-007 -1 1.56832e-007
    length 17.3336
    axis -3.4909 -0.000906625 0.00028951 xyz
    dof rx ry rz
  end
  begin
    id 23
    name RightLeg
    direction -1.82786e-007 -1 -1.80317e-007
    length 14.9995
    axis 3.68513 0.0193739 -0.131021 xyz
    dof rx ry rz
  end
  begin
    id 24
    name RightFoot
    direction 8.31721e-007 -4.63324e-011 1
    length 6.74421
    axis 4.81691e-005 -0.120479 -0.188785 xyz
    dof rx ry rz
  end
  begin
    id 25
    name RightToes
    direction 0.00124746 -0.014064 0.9999
    length 3.85082
    axis 0.000481921 0.542163 -0.142575 xyz
    dof rx ry rz
  end
:hierarchy
  begin
    root LeftUpLegDummy SpineDummy RightUpLegDummy
    LeftUpLegDummy LeftUpLeg
    LeftUpLeg LeftLeg
    LeftLeg LeftFoot
    LeftFoot LeftToes
    SpineDummy Spine
    Spine Spine1
    Spine1 RightShoulderDummy LeftShoulder1Dummy HEadDummy
    RightShoulderDummy RightShoulder
    RightShoulder RightArm
    RightArm RightForeArm
    RightForeArm RightHand
    LeftShoulder1Dummy LeftShoulder1
    LeftShoulder1 LeftArm
    LeftArm LeftForeArm
    LeftForeArm LeftHand
    HEadDummy HEad
    RightUpLegDummy RightUpLeg
    RightUpLeg RightLeg
    RightLeg RightFoot
    RightFoot RightToes
  end

:SAMPLES-PER-SECOND 30
:FULLY-SPECIFIED
:DEGREES
33
root  3.4576 33.6797 -7.04235 6.25371 8.55776 1.37618
LeftUpLeg  -8.48347 6.95611 5.68929
LeftLeg  15.2154 7.2975 1.48304
LeftFoot  -0.00755358 -8.13851e-005 -0.119989
LeftToes  -22.67 1.85109e-006 5.31342e-008
Spine  2.40501 0.158191 0.195098
Spine1  4.4993 0.00191531 0.605069
RightShoulder  0.127018 5.61138 11.4829
RightArm  -42.8575 -17.0044 62.0352
RightForeArm  50.5382 6.48462 1.12596
RightHand  1.50471 -14.7986 -11.1733
LeftShoulder1  0.0679317 -0.231687 -10.1562
LeftArm  -17.2198 9.41406 -71.0216
LeftForeArm  35.3321 -13.2001 -2.36138
LeftHand  0.033795 1.68738 2.26659
HEad  -18.7073 -11.8663 3.57064
RightUpLeg  -9.42718 -3.43602 -9.02196
RightLeg  11.4786 3.03864 0.417112
RightFoot  2.42168 0.00111133 0.169849
RightToes  -41.8848 -0.23015 -0.323951
34
root  3.46947 33.6763 -7.03708 6.25193 8.02613 1.39602
LeftUpLeg  -8.39684 7.18827 5.62858
LeftLeg  15.3069 7.57397 1.5515
LeftFoot  -0.133923 0.000688796 -0.137622
LeftToes  -22.4759 1.85109e-006 5.31342e-008
Spine  2.40695 0.158506 0.215235
Spine1  4.47526 0.0304104 0.594714
RightShoulder  0.134635 5.70251 11.4651
RightArm  -43.7447 -15.8297 62.0674
RightForeArm  49.3401 6.87253 1.19694
RightHand  1.55085 -14.9977 -11.3663
LeftShoulder1  0.0684134 -0.275494 -10.1063
LeftArm  -16.8342 9.15262 -71.0783
LeftForeArm  34.9811 -13.661 -2.44735
LeftHand  0.0334728 1.59874 2.17916
HEad  -18.2516 -11.6267 3.36405
RightUpLeg  -9.56202 -3.28138 -9.07571
RightLeg  11.5188 3.40612 0.469804
RightFoot  2.41411 -0.000703637 0.186071
RightToes  -41.8814 -0.23015 -0.323872
35
root  3.47669 33.6743 -7.03292 6.27425 7.60913 1.42378
LeftUpLeg  -8.31183 7.02925 5.56332
LeftLeg  15.3133 8.08883 1.65727
LeftFoot  -0.181858 0.000798369 -0.144019
LeftToes  -22.3736 1.85109e-006 5.31342e-008
Spine  2.42891 0.171947 0.237409
Spine1  4.4851 0.0932498 0.588623
RightShoulder  0.140789 5.65883 11.3558
RightArm  -44.1753 -14.3441 62.5853
RightForeArm  48.3706 7.36594 1.28642
RightHand  1.56992 -14.9744 -11.5282
LeftShoulder1  0.0689875 -0.325419 -10.0696
LeftArm  -16.0841 8.71922 -71.1675
LeftForeArm  34.4817 -14.0495 -2.52025
LeftHand  0.0331857 1.53003 2.10538
HEad  -17.9825 -11.4738 3.17534
RightUpLeg  -9.72345 -3.13466 -9.12111
RightLeg  11.6157 3.64004 0.508213
RightFoot  2.40286 -0.00227608 0.198458
RightToes  -42.0945 -0.23015 -0.323792
36
root  3.47308 33.6729 -7.02781 6.27491 7.34234 1.42168
LeftUpLeg  -8.22633 7.14308 5.56335
LeftLeg  15.2648 8.22599 1.67799
LeftFoot  -0.191382 0.00071441 -0.14649
LeftToes  -22.37 1.85109e-006 5.31342e-008
Spine  2.46038 0.184786 0.260053
Spine1  4.51117 0.160267 0.589133
RightShoulder  0.145046 5.5504 11.258
RightArm  -43.0022 -12.9068 63.4571
RightForeArm  46.7233 8.36169 1.46706
RightHand  1.54878 -14.9508 -11.3877
LeftShoulder1  0.0696165 -0.340627 -10.0475
LeftArm  -15.4506 8.13082 -71.3244
LeftForeArm  34.1919 -14.2891 -2.56532
LeftHand  0.0333387 1.47937 2.1211
HEad  -17.8445 -11.3812 3.03064
RightUpLeg  -9.81004 -2.97311 -9.11415
RightLeg  11.687 3.73407 0.526021
RightFoot  2.29171 -0.00318267 0.200469
RightToes  -41.5911 -0.23015 -0.323708
37
root  3.46507 33.6734 -7.02724 6.21778 7.22139 1.35266
LeftUpLeg  -8.22504 7.82601 5.65656
LeftLeg  15.3757 7.73807 1.59456
LeftFoot  -0.256627 0.000430835 -0.144994
LeftToes  -22.4661 1.85109e-006 5.31342e-008
Spine  2.51206 0.208172 0.275824
Spine1  4.57569 0.250694 0.580224
RightShoulder  0.150141 5.46973 11.1981
RightArm  -41.067 -11.5306 64.5869
RightForeArm  45.1177 9.592 1.69082
RightHand  1.46962 -14.7615 -10.9343
LeftShoulder1  0.0702631 -0.397458 -10.0055
LeftArm  -15.1525 7.43261 -71.5264
LeftForeArm  34.1439 -14.4156 -2.58906
LeftHand  0.0326688 1.4347 2.02343
HEad  -17.8553 -11.3816 3.03708
RightUpLeg  -9.8072 -2.98654 -9.03409
RightLeg  11.7111 3.85451 0.544585
RightFoot  2.32399 -0.00478033 0.213197
RightToes  -41.7479 -0.23015 -0.323621
38
root  3.45736 33.6777 -7.02351 6.19206 7.16441 1.31509
LeftUpLeg  -8.15664 7.66249 5.70059
LeftLeg  15.3223 7.94221 1.62871
LeftFoot  -0.230766 -0.000313526 -0.135523
LeftToes  -22.4167 1.85109e-006 5.31342e-008
Spine  2.53071 0.266036 0.258651
Spine1  4.57892 0.408476 0.518925
RightShoulder  0.15316 5.39869 11.0783
RightArm  -38.4677 -10.2982 65.965
RightForeArm  43.5474 10.8401 1.91937
RightHand  1.39998 -14.5771 -10.5387
LeftShoulder1  0.0708896 -0.500838 -9.96365
LeftArm  -14.8162 6.81762 -71.7205
LeftForeArm  33.9938 -14.5535 -2.61508
LeftHand  0.0322635 1.50506 2.01968
HEad  -17.7966 -11.4502 3.15422
RightUpLeg  -9.76724 -3.0868 -8.99103
RightLeg  11.6573 4.061 0.569785
RightFoot  2.31794 -0.00649533 0.227767
RightToes  -41.4977 -0.23015 -0.323529
39
root  3.4445 33.6838 -7.01885 6.15902 7.1543 1.27951
LeftUpLeg  -8.08415 7.60396 5.75613
LeftLeg  15.2417 8.01547 1.63195
LeftFoot  -0.16866 -0.00144053 -0.119345
LeftToes  -22.4497 1.85109e-006 5.31342e-008
Spine  2.54121 0.351953 0.209614
Spine1  4.57105 0.621034 0.40378
RightShoulder  0.154351 5.32428 10.9724
RightArm  -35.9141 -9.1019 67.5038
RightForeArm  42.4351 11.9884 2.13089
RightHand  1.312 -14.343 -10.0246
LeftShoulder1  0.0714588 -0.570505 -9.92596
LeftArm  -14.5901 6.22209 -71.9071
LeftForeArm  33.8864 -14.6834 -2.63956
LeftHand  0.0319069 1.49609 1.98492
HEad  -17.6434 -11.6352 3.28988
RightUpLeg  -9.7206 -3.26183 -8.92972
RightLeg  11.6232 4.24665 0.59317
RightFoot  2.3249 -0.00819985 0.242224
RightToes  -41.4477 -0.23015 -0.323431
40
root  3.43104 33.6903 -7.01167 6.10928 7.19218 1.22214
LeftUpLeg  -7.99587 7.57944 5.84064
LeftLeg  15.1457 8.02082 1.61911
LeftFoot  -0.112963 -0.00250111 -0.103489
LeftToes  -22.5016 1.85109e-006 5.31342e-008
Spine  2.53568 0.446122 0.156687
Spine1  4.53706 0.850305 0.282311
RightShoulder  0.155173 5.28357 10.8383
RightArm  -33.5801 -7.93537 69.1559
RightForeArm  41.8887 12.8887 2.2976
RightHand  1.2461 -14.1166 -9.66425
LeftShoulder1  0.0719331 -0.624695 -9.89842
LeftArm  -14.3111 5.80349 -72.0661
LeftForeArm  33.647 -14.9248 -2.68521
LeftHand  0.031497 1.50002 1.94875
HEad  -17.4154 -11.8062 3.48198
RightUpLeg  -9.62192 -3.35809 -8.84783
RightLeg  11.5413 4.325 0.597796
RightFoot  2.35967 -0.00972308 0.253948
RightToes  -41.45 -0.229801 -0.323327
41
root  3.41683 33.6962 -7.0003 6.05904 7.27594 1.17307
LeftUpLeg  -7.90161 7.5292 5.92612
LeftLeg  15.0336 7.99664 1.59805
LeftFoot  -0.0373659 -0.00368455 -0.085067
LeftToes  -22.5855 1.85109e-006 5.31342e-008
Spine  2.51232 0.538944 0.0904508
Spine1  4.47025 1.07664 0.135603
RightShoulder  0.155608 5.27618 10.7196
RightArm  -31.3096 -6.8628 70.8265
RightForeArm  41.5107 13.6103 2.43203
RightHand  1.19455 -13.9511 -9.36573
LeftShoulder1  0.0722751 -0.64172 -9.90534
LeftArm  -13.8359 5.57253 -72.1449
LeftForeArm  33.3167 -15.2647 -2.74962
LeftHand  0.0309658 1.48359 1.88231
HEad  -17.0077 -12.0047 3.65239
RightUpLeg  -9.47637 -3.35669 -8.77531
RightLeg  11.4003 4.26052 0.578256
RightFoot  2.41203 -0.0109381 0.260997
RightToes  -41.4707 -0.229481 -0.323215
42
root  3.40542 33.7021 -6.98798 5.99833 7.37799 1.12985
LeftUpLeg  -7.78344 7.46414 5.9991
LeftLeg  14.8878 7.98508 1.57473
LeftFoot  0.0368485 -0.00482128 -0.0667656
LeftToes  -22.6565 1.85109e-006 5.31342e-008
Spine  2.49463 0.634449 0.0248723
Spine1  4.42143 1.30643 -0.00774566
RightShoulder  0.15558 5.37963 10.6208
RightArm  -29.4415 -5.91584 72.4003
RightForeArm  41.5506 14.24 2.54961
RightHand  1.11366 -13.783 -8.82066
LeftShoulder1  0.0724473 -0.619176 -9.95568
LeftArm  -13.4281 5.44814 -72.209
LeftForeArm  33.0746 -15.6065 -2.81454
LeftHand  0.0303247 1.40109 1.75895
HEad  -16.7255 -12.1702 3.7238
RightUpLeg  -9.31766 -3.40217 -8.71206
RightLeg  11.2704 4.23036 0.564441
RightFoot  2.45771 -0.0121591 0.268279
RightToes  -41.5325 -0.229185 -0.323094
43
root  3.39033 33.7085 -6.97204 5.92834 7.58273 1.06983
LeftUpLeg  -7.65837 7.29374 6.10452
LeftLeg  14.7204 7.94193 1.54229
LeftFoot  0.121722 -0.00599336 -0.0473619
LeftToes  -22.6806 1.85109e-006 5.31342e-008
Spine  2.48408 0.731538 -0.0222217
Spine1  4.39458 1.53283 -0.108085
RightShoulder  0.155074 5.37365 10.482
RightArm  -27.3964 -5.09278 73.8708
RightForeArm  41.5113 14.7972 2.65429
RightHand  1.03865 -13.4997 -8.3848
LeftShoulder1  0.0724123 -0.606064 -9.94848
LeftArm  -12.8047 5.4672 -72.3173
LeftForeArm  32.6554 -15.9638 -2.88278
LeftHand  0.0297545 1.41101 1.69299
HEad  -16.6701 -12.4015 3.74994
RightUpLeg  -9.127 -3.58795 -8.62327
RightLeg  11.1454 4.23359 0.555498
RightFoot  2.47925 -0.0132958 0.274424
RightToes  -41.5554 -0.22891 -0.322964
